STARTFONT 2.1
COMMENT Generated from X font `-adobe-helvetica-bold-r-normal--24-240-75-75-p-138-iso8859-1' by getbdf
FONT -adobe-helvetica-bold-r-normal--24-240-75-75-p-138-iso8859-1
SIZE 24 75 75
FONTBOUNDINGBOX 24 29 -1 -5
STARTPROPERTIES 30
FONT_ASCENT 22
FONT_DESCENT 5
DEFAULT_CHAR 0
FOUNDRY "Adobe"
FAMILY_NAME "Helvetica"
WEIGHT_NAME "Bold"
SLANT "R"
SETWIDTH_NAME "Normal"
ADD_STYLE_NAME ""
PIXEL_SIZE 24
POINT_SIZE 240
RESOLUTION_X 75
RESOLUTION_Y 75
SPACING "P"
AVERAGE_WIDTH 138
CHARSET_REGISTRY "ISO8859"
CHARSET_ENCODING "1"
CAP_HEIGHT 19
X_HEIGHT 14
FACE_NAME "Helvetica Bold"
COPYRIGHT "Copyright (c) 1984, 1987 Adobe Systems Incorporated. All Rights Reserved. Copyright (c) 1988, 1991 Digital Equipment Corporation. All Rights Reserved."
NOTICE "Helvetica is a trademark of Linotype-Hell AG and/or its subsidiaries.  "
_DEC_DEVICE_FONTNAMES 223
RELATIVE_SETWIDTH 50
RELATIVE_WEIGHT 70
FULL_NAME "Helvetica Bold"
FONT "-Adobe-Helvetica-Bold-R-Normal--24-240-75-75-P-138-ISO8859-1"
WEIGHT 10
RESOLUTION 103
QUAD_WIDTH 15
ENDPROPERTIES
CHARS 192
STARTCHAR 0
ENCODING 0
SWIDTH 760 0
DWIDTH 19 0
BBX 15 19 2 0
BITMAP
aaaa
0000
8002
0000
8002
0000
8002
0000
8002
0000
8002
0000
8002
0000
8002
0000
8002
0000
aaaa
ENDCHAR
STARTCHAR 32
ENCODING 32
SWIDTH 240 0
DWIDTH 6 0
BBX 1 1 0 0
BITMAP
00
ENDCHAR
STARTCHAR 33
ENCODING 33
SWIDTH 280 0
DWIDTH 7 0
BBX 3 19 2 0
BITMAP
e0
e0
e0
e0
e0
e0
e0
e0
e0
e0
e0
e0
e0
e0
00
00
e0
e0
e0
ENDCHAR
STARTCHAR 34
ENCODING 34
SWIDTH 360 0
DWIDTH 9 0
BBX 5 6 2 13
BITMAP
d8
d8
d8
d8
d8
90
ENDCHAR
STARTCHAR 35
ENCODING 35
SWIDTH 560 0
DWIDTH 14 0
BBX 12 18 0 0
BITMAP
0cc0
0cc0
0cc0
0cc0
0cc0
7ff0
7ff0
1980
1980
1980
1980
ffe0
ffe0
3300
3300
3300
3300
3300
ENDCHAR
STARTCHAR 36
ENCODING 36
SWIDTH 520 0
DWIDTH 13 0
BBX 12 21 0 -2
BITMAP
0600
3f80
7fc0
f6e0
e6e0
e6e0
f600
7e00
3e00
0f00
07c0
07e0
06f0
e670
e670
e670
f6f0
7fe0
1fc0
0600
0600
ENDCHAR
STARTCHAR 37
ENCODING 37
SWIDTH 880 0
DWIDTH 22 0
BBX 21 18 0 0
BITMAP
000700
3e0700
7f0e00
e38e00
c19c00
c19c00
e3b800
7f3800
3e7000
007000
00e3e0
00e7f0
01ce38
01cc18
038c18
038e38
0707f0
0703e0
ENDCHAR
STARTCHAR 38
ENCODING 38
SWIDTH 720 0
DWIDTH 18 0
BBX 16 18 1 0
BITMAP
0f80
1fc0
3de0
38e0
38e0
38e0
1dc0
0f80
1f00
3f9c
7bdc
71fc
e0f8
e070
e0f8
f1fc
7fce
1f87
ENDCHAR
STARTCHAR 39
ENCODING 39
SWIDTH 240 0
DWIDTH 6 0
BBX 2 6 2 13
BITMAP
c0
c0
c0
c0
c0
80
ENDCHAR
STARTCHAR 40
ENCODING 40
SWIDTH 320 0
DWIDTH 8 0
BBX 6 24 1 -5
BITMAP
0c
1c
38
38
70
70
60
e0
e0
e0
e0
e0
e0
e0
e0
e0
e0
60
70
70
38
38
1c
0c
ENDCHAR
STARTCHAR 41
ENCODING 41
SWIDTH 320 0
DWIDTH 8 0
BBX 6 24 1 -5
BITMAP
c0
e0
70
70
38
38
18
1c
1c
1c
1c
1c
1c
1c
1c
1c
1c
18
38
38
70
70
e0
c0
ENDCHAR
STARTCHAR 42
ENCODING 42
SWIDTH 400 0
DWIDTH 10 0
BBX 8 7 1 12
BITMAP
18
18
db
ff
3c
66
66
ENDCHAR
STARTCHAR 43
ENCODING 43
SWIDTH 600 0
DWIDTH 15 0
BBX 11 12 2 1
BITMAP
0e00
0e00
0e00
0e00
0e00
ffe0
ffe0
0e00
0e00
0e00
0e00
0e00
ENDCHAR
STARTCHAR 44
ENCODING 44
SWIDTH 280 0
DWIDTH 7 0
BBX 3 6 2 -3
BITMAP
e0
e0
e0
60
60
c0
ENDCHAR
STARTCHAR 45
ENCODING 45
SWIDTH 320 0
DWIDTH 8 0
BBX 7 3 0 6
BITMAP
fe
fe
fe
ENDCHAR
STARTCHAR 46
ENCODING 46
SWIDTH 280 0
DWIDTH 7 0
BBX 3 3 2 0
BITMAP
e0
e0
e0
ENDCHAR
STARTCHAR 47
ENCODING 47
SWIDTH 320 0
DWIDTH 8 0
BBX 8 19 0 0
BITMAP
07
07
06
06
0e
0c
0c
1c
1c
18
18
38
30
30
70
60
60
e0
e0
ENDCHAR
STARTCHAR 48
ENCODING 48
SWIDTH 520 0
DWIDTH 13 0
BBX 12 18 0 0
BITMAP
1f80
3fc0
79e0
70e0
70e0
e070
e070
e070
e070
e070
e070
e070
e070
70e0
70e0
79e0
3fc0
1f80
ENDCHAR
STARTCHAR 49
ENCODING 49
SWIDTH 520 0
DWIDTH 13 0
BBX 7 18 2 0
BITMAP
0e
0e
1e
fe
fe
0e
0e
0e
0e
0e
0e
0e
0e
0e
0e
0e
0e
0e
ENDCHAR
STARTCHAR 50
ENCODING 50
SWIDTH 520 0
DWIDTH 13 0
BBX 12 18 0 0
BITMAP
1f00
7fc0
71e0
e0e0
e070
e070
0070
00e0
01e0
03c0
0780
1f00
3c00
7800
f000
e000
fff0
fff0
ENDCHAR
STARTCHAR 51
ENCODING 51
SWIDTH 520 0
DWIDTH 13 0
BBX 12 18 0 0
BITMAP
1f00
7fc0
71c0
e0e0
e0e0
e0e0
00e0
01c0
0f80
0fe0
00e0
0070
0070
e070
e0f0
71e0
7fe0
1f80
ENDCHAR
STARTCHAR 52
ENCODING 52
SWIDTH 520 0
DWIDTH 13 0
BBX 12 18 0 0
BITMAP
01c0
03c0
03c0
07c0
07c0
0dc0
1dc0
19c0
31c0
71c0
61c0
e1c0
fff0
fff0
01c0
01c0
01c0
01c0
ENDCHAR
STARTCHAR 53
ENCODING 53
SWIDTH 520 0
DWIDTH 13 0
BBX 12 18 0 0
BITMAP
7fe0
7fe0
7000
7000
7000
7000
7f80
7fc0
71e0
00e0
0070
0070
0070
e070
e0f0
f1e0
7fc0
1f80
ENDCHAR
STARTCHAR 54
ENCODING 54
SWIDTH 520 0
DWIDTH 13 0
BBX 12 18 0 0
BITMAP
0f80
3fe0
78e0
7070
e070
e000
e000
ef00
ffc0
f9e0
f0e0
e070
e070
e070
70e0
79e0
3fc0
1f80
ENDCHAR
STARTCHAR 55
ENCODING 55
SWIDTH 520 0
DWIDTH 13 0
BBX 12 18 0 0
BITMAP
fff0
fff0
00f0
00e0
01c0
01c0
0380
0380
0700
0700
0e00
0e00
1e00
1c00
1c00
3c00
3800
3800
ENDCHAR
STARTCHAR 56
ENCODING 56
SWIDTH 520 0
DWIDTH 13 0
BBX 12 18 0 0
BITMAP
0f00
3fc0
39c0
70e0
70e0
70e0
70e0
39c0
1f80
3fc0
70e0
e070
e070
e070
e070
70e0
7fe0
1f80
ENDCHAR
STARTCHAR 57
ENCODING 57
SWIDTH 520 0
DWIDTH 13 0
BBX 12 18 0 0
BITMAP
1f80
7fc0
79e0
f0e0
e070
e070
e070
e070
f0f0
79f0
7ff0
1f70
0070
0070
e0e0
f3e0
7fc0
1f00
ENDCHAR
STARTCHAR 58
ENCODING 58
SWIDTH 280 0
DWIDTH 7 0
BBX 3 14 2 0
BITMAP
e0
e0
e0
00
00
00
00
00
00
00
00
e0
e0
e0
ENDCHAR
STARTCHAR 59
ENCODING 59
SWIDTH 280 0
DWIDTH 7 0
BBX 3 17 2 -3
BITMAP
e0
e0
e0
00
00
00
00
00
00
00
00
e0
e0
e0
60
60
c0
ENDCHAR
STARTCHAR 60
ENCODING 60
SWIDTH 600 0
DWIDTH 15 0
BBX 13 12 0 1
BITMAP
0038
00f8
03e0
0f80
3e00
f000
f000
3e00
0f80
03e0
00f8
0038
ENDCHAR
STARTCHAR 61
ENCODING 61
SWIDTH 560 0
DWIDTH 14 0
BBX 10 6 2 4
BITMAP
ffc0
ffc0
0000
0000
ffc0
ffc0
ENDCHAR
STARTCHAR 62
ENCODING 62
SWIDTH 560 0
DWIDTH 14 0
BBX 13 12 0 1
BITMAP
e000
f800
3e00
0f80
03e0
0078
0078
03e0
0f80
3e00
f800
e000
ENDCHAR
STARTCHAR 63
ENCODING 63
SWIDTH 600 0
DWIDTH 15 0
BBX 11 19 2 0
BITMAP
1f80
7fc0
79e0
f0e0
e0e0
e1e0
01c0
03c0
0780
0700
0e00
0e00
0e00
0e00
0000
0000
0e00
0e00
0e00
ENDCHAR
STARTCHAR 64
ENCODING 64
SWIDTH 960 0
DWIDTH 24 0
BBX 22 22 1 -4
BITMAP
01ff00
07ffc0
0f81f0
1e0078
3c0038
787d9c
70ff9c
f1c71c
e3871c
e30e1c
e70e38
e70c38
e71c70
e71c70
e39de0
f3ffc0
71f700
780000
3c0000
1f0700
0fff00
03fc00
ENDCHAR
STARTCHAR 65
ENCODING 65
SWIDTH 720 0
DWIDTH 18 0
BBX 16 19 1 0
BITMAP
03c0
03c0
07e0
07e0
0e60
0e70
0e70
1c38
1c38
1c38
381c
381c
3ffc
7ffe
700e
700e
e007
e007
e007
ENDCHAR
STARTCHAR 66
ENCODING 66
SWIDTH 720 0
DWIDTH 18 0
BBX 15 19 2 0
BITMAP
ffe0
fff8
e078
e01c
e01c
e01c
e01c
e038
fff0
fff8
e01c
e00e
e00e
e00e
e00e
e01e
e07c
fff8
ffe0
ENDCHAR
STARTCHAR 67
ENCODING 67
SWIDTH 720 0
DWIDTH 18 0
BBX 16 19 1 0
BITMAP
07f0
1ffc
3e3e
780f
7007
f000
e000
e000
e000
e000
e000
e000
e000
f007
7007
780f
3e3e
1ffc
07f0
ENDCHAR
STARTCHAR 68
ENCODING 68
SWIDTH 760 0
DWIDTH 19 0
BBX 16 19 2 0
BITMAP
ffe0
fff8
e07c
e01e
e00e
e00f
e007
e007
e007
e007
e007
e007
e007
e00f
e00e
e01e
e07c
fff8
ffe0
ENDCHAR
STARTCHAR 69
ENCODING 69
SWIDTH 640 0
DWIDTH 16 0
BBX 13 19 2 0
BITMAP
fff0
fff0
e000
e000
e000
e000
e000
e000
ffe0
ffe0
e000
e000
e000
e000
e000
e000
e000
fff8
fff8
ENDCHAR
STARTCHAR 70
ENCODING 70
SWIDTH 600 0
DWIDTH 15 0
BBX 12 19 2 0
BITMAP
fff0
fff0
e000
e000
e000
e000
e000
e000
ffe0
ffe0
e000
e000
e000
e000
e000
e000
e000
e000
e000
ENDCHAR
STARTCHAR 71
ENCODING 71
SWIDTH 760 0
DWIDTH 19 0
BBX 17 19 1 0
BITMAP
07f000
1ffc00
3e3e00
780f00
700700
f00000
e00000
e00000
e00000
e07f80
e07f80
e00380
e00380
f00380
700780
780f80
3e3f80
1ffb80
07f180
ENDCHAR
STARTCHAR 72
ENCODING 72
SWIDTH 760 0
DWIDTH 19 0
BBX 15 19 2 0
BITMAP
e00e
e00e
e00e
e00e
e00e
e00e
e00e
e00e
fffe
fffe
e00e
e00e
e00e
e00e
e00e
e00e
e00e
e00e
e00e
ENDCHAR
STARTCHAR 73
ENCODING 73
SWIDTH 280 0
DWIDTH 7 0
BBX 3 19 2 0
BITMAP
e0
e0
e0
e0
e0
e0
e0
e0
e0
e0
e0
e0
e0
e0
e0
e0
e0
e0
e0
ENDCHAR
STARTCHAR 74
ENCODING 74
SWIDTH 560 0
DWIDTH 14 0
BBX 11 19 1 0
BITMAP
00e0
00e0
00e0
00e0
00e0
00e0
00e0
00e0
00e0
00e0
00e0
00e0
e0e0
e0e0
e0e0
e0e0
71e0
7fc0
3f80
ENDCHAR
STARTCHAR 75
ENCODING 75
SWIDTH 720 0
DWIDTH 18 0
BBX 16 19 2 0
BITMAP
e03c
e078
e0f0
e1e0
e3c0
e780
ef00
fe00
fe00
ff00
f780
e3c0
e1e0
e0f0
e078
e03c
e01e
e00f
e007
ENDCHAR
STARTCHAR 76
ENCODING 76
SWIDTH 600 0
DWIDTH 15 0
BBX 12 19 2 0
BITMAP
e000
e000
e000
e000
e000
e000
e000
e000
e000
e000
e000
e000
e000
e000
e000
e000
e000
fff0
fff0
ENDCHAR
STARTCHAR 77
ENCODING 77
SWIDTH 920 0
DWIDTH 23 0
BBX 19 19 2 0
BITMAP
e000e0
f001e0
f001e0
f803e0
f803e0
fc07e0
ec06e0
ee0ee0
e60ce0
e71ce0
e71ce0
e318e0
e3b8e0
e3b8e0
e1f0e0
e1f0e0
e0e0e0
e0e0e0
e0e0e0
ENDCHAR
STARTCHAR 78
ENCODING 78
SWIDTH 760 0
DWIDTH 19 0
BBX 15 19 2 0
BITMAP
e00e
f00e
f00e
f80e
f80e
fc0e
ee0e
ee0e
e70e
e38e
e38e
e1ce
e0ce
e0ee
e07e
e03e
e03e
e01e
e00e
ENDCHAR
STARTCHAR 79
ENCODING 79
SWIDTH 760 0
DWIDTH 19 0
BBX 17 19 1 0
BITMAP
07f000
1ffc00
3e3e00
780f00
700700
f00780
e00380
e00380
e00380
e00380
e00380
e00380
e00380
f00780
700700
780f00
3e3e00
1ffc00
07f000
ENDCHAR
STARTCHAR 80
ENCODING 80
SWIDTH 680 0
DWIDTH 17 0
BBX 14 19 2 0
BITMAP
ffe0
fff8
e038
e01c
e01c
e01c
e01c
e038
fff8
fff0
e000
e000
e000
e000
e000
e000
e000
e000
e000
ENDCHAR
STARTCHAR 81
ENCODING 81
SWIDTH 760 0
DWIDTH 19 0
BBX 17 19 1 0
BITMAP
07f000
1ffc00
3e3e00
780f00
700700
f00780
e00380
e00380
e00380
e00380
e00380
e00380
e00380
f00780
70f700
787f00
3e1e00
1fff00
07f780
ENDCHAR
STARTCHAR 82
ENCODING 82
SWIDTH 680 0
DWIDTH 17 0
BBX 14 19 2 0
BITMAP
ffe0
fff8
e038
e01c
e01c
e01c
e01c
e038
fff8
fff0
e078
e038
e01c
e01c
e01c
e01c
e01c
e01c
e01c
ENDCHAR
STARTCHAR 83
ENCODING 83
SWIDTH 680 0
DWIDTH 17 0
BBX 15 19 1 0
BITMAP
07e0
1ff8
3c7c
781c
701c
7000
7800
3e00
1fe0
03f8
007c
001e
000e
e00e
e00e
f01e
7c7c
3ff8
0fe0
ENDCHAR
STARTCHAR 84
ENCODING 84
SWIDTH 600 0
DWIDTH 15 0
BBX 15 19 0 0
BITMAP
fffe
fffe
0380
0380
0380
0380
0380
0380
0380
0380
0380
0380
0380
0380
0380
0380
0380
0380
0380
ENDCHAR
STARTCHAR 85
ENCODING 85
SWIDTH 760 0
DWIDTH 19 0
BBX 15 19 2 0
BITMAP
e00e
e00e
e00e
e00e
e00e
e00e
e00e
e00e
e00e
e00e
e00e
e00e
e00e
e00e
f01e
701c
7c7c
3ff8
0fe0
ENDCHAR
STARTCHAR 86
ENCODING 86
SWIDTH 720 0
DWIDTH 18 0
BBX 16 19 1 0
BITMAP
e007
e007
f00f
700e
781e
381c
381c
3c3c
1c38
1c38
1e78
0e70
0e70
0e70
07e0
07e0
03c0
03c0
03c0
ENDCHAR
STARTCHAR 87
ENCODING 87
SWIDTH 920 0
DWIDTH 23 0
BBX 21 19 1 0
BITMAP
e07038
e07038
e07038
e07038
70f870
70f870
70d870
71dc70
31dc60
39dce0
398ce0
3b8ee0
1b8ec0
1b8ec0
1f07c0
1f07c0
0e0380
0e0380
0e0380
ENDCHAR
STARTCHAR 88
ENCODING 88
SWIDTH 720 0
DWIDTH 18 0
BBX 16 19 1 0
BITMAP
e007
f00f
781e
381c
1c38
0e70
0ff0
07e0
03c0
03c0
07e0
0ff0
0e70
1c38
3c3c
381c
700e
f00f
e007
ENDCHAR
STARTCHAR 89
ENCODING 89
SWIDTH 680 0
DWIDTH 17 0
BBX 15 19 1 0
BITMAP
e00e
f01e
701c
783c
3838
3c78
1c70
1ef0
0ee0
0fe0
07c0
07c0
0380
0380
0380
0380
0380
0380
0380
ENDCHAR
STARTCHAR 90
ENCODING 90
SWIDTH 640 0
DWIDTH 16 0
BBX 14 19 1 0
BITMAP
fffc
fffc
003c
0078
00f0
01e0
01e0
03c0
0780
0780
0f00
1e00
1e00
3c00
3800
7800
f000
fffc
fffc
ENDCHAR
STARTCHAR 91
ENCODING 91
SWIDTH 320 0
DWIDTH 8 0
BBX 5 24 1 -5
BITMAP
f8
f8
e0
e0
e0
e0
e0
e0
e0
e0
e0
e0
e0
e0
e0
e0
e0
e0
e0
e0
e0
e0
f8
f8
ENDCHAR
STARTCHAR 92
ENCODING 92
SWIDTH 320 0
DWIDTH 8 0
BBX 8 19 0 0
BITMAP
e0
e0
60
60
70
30
30
38
38
18
18
1c
0c
0c
0e
06
06
07
07
ENDCHAR
STARTCHAR 93
ENCODING 93
SWIDTH 320 0
DWIDTH 8 0
BBX 5 24 2 -5
BITMAP
f8
f8
38
38
38
38
38
38
38
38
38
38
38
38
38
38
38
38
38
38
38
38
f8
f8
ENDCHAR
STARTCHAR 94
ENCODING 94
SWIDTH 560 0
DWIDTH 14 0
BBX 11 9 1 10
BITMAP
0e00
0e00
1f00
1b00
3b80
71c0
71c0
e0e0
e0e0
ENDCHAR
STARTCHAR 95
ENCODING 95
SWIDTH 560 0
DWIDTH 14 0
BBX 14 2 0 -5
BITMAP
fffc
fffc
ENDCHAR
STARTCHAR 96
ENCODING 96
SWIDTH 320 0
DWIDTH 8 0
BBX 6 4 1 15
BITMAP
e0
70
38
1c
ENDCHAR
STARTCHAR 97
ENCODING 97
SWIDTH 560 0
DWIDTH 14 0
BBX 12 14 1 0
BITMAP
1f80
3fc0
71e0
70e0
00e0
07e0
3fe0
7ce0
f0e0
e0e0
e1e0
f3e0
7ff0
3e70
ENDCHAR
STARTCHAR 98
ENCODING 98
SWIDTH 600 0
DWIDTH 15 0
BBX 12 19 2 0
BITMAP
e000
e000
e000
e000
e000
ef80
ffc0
f9e0
f0e0
e070
e070
e070
e070
e070
e070
f0e0
f9e0
ffc0
ef80
ENDCHAR
STARTCHAR 99
ENCODING 99
SWIDTH 520 0
DWIDTH 13 0
BBX 11 14 1 0
BITMAP
1f80
3fc0
79e0
70e0
e000
e000
e000
e000
e000
e000
70e0
79e0
3fc0
1f80
ENDCHAR
STARTCHAR 100
ENCODING 100
SWIDTH 600 0
DWIDTH 15 0
BBX 12 19 1 0
BITMAP
0070
0070
0070
0070
0070
1f70
3ff0
79f0
70f0
e070
e070
e070
e070
e070
e070
70f0
79f0
3ff0
1f70
ENDCHAR
STARTCHAR 101
ENCODING 101
SWIDTH 560 0
DWIDTH 14 0
BBX 12 14 1 0
BITMAP
0f00
3fc0
79e0
70e0
e070
e070
fff0
fff0
e000
e000
7070
78f0
3fe0
0f80
ENDCHAR
STARTCHAR 102
ENCODING 102
SWIDTH 360 0
DWIDTH 9 0
BBX 7 19 1 0
BITMAP
1e
3e
38
38
38
fe
fe
38
38
38
38
38
38
38
38
38
38
38
38
ENDCHAR
STARTCHAR 103
ENCODING 103
SWIDTH 600 0
DWIDTH 15 0
BBX 12 19 1 -5
BITMAP
1f70
3ff0
79f0
70f0
e070
e070
e070
e070
e070
e070
70f0
79f0
3ff0
1f70
0070
e070
f0e0
7fe0
1f80
ENDCHAR
STARTCHAR 104
ENCODING 104
SWIDTH 600 0
DWIDTH 15 0
BBX 11 19 2 0
BITMAP
e000
e000
e000
e000
e000
ef00
ffc0
f1c0
e0e0
e0e0
e0e0
e0e0
e0e0
e0e0
e0e0
e0e0
e0e0
e0e0
e0e0
ENDCHAR
STARTCHAR 105
ENCODING 105
SWIDTH 280 0
DWIDTH 7 0
BBX 3 19 2 0
BITMAP
e0
e0
e0
00
00
e0
e0
e0
e0
e0
e0
e0
e0
e0
e0
e0
e0
e0
e0
ENDCHAR
STARTCHAR 106
ENCODING 106
SWIDTH 280 0
DWIDTH 7 0
BBX 5 24 0 -5
BITMAP
38
38
38
00
00
38
38
38
38
38
38
38
38
38
38
38
38
38
38
38
38
38
f8
f0
ENDCHAR
STARTCHAR 107
ENCODING 107
SWIDTH 560 0
DWIDTH 14 0
BBX 12 19 2 0
BITMAP
e000
e000
e000
e000
e000
e1e0
e3c0
e780
ef00
fe00
fc00
fe00
ef00
e700
e780
e3c0
e1c0
e1e0
e0f0
ENDCHAR
STARTCHAR 108
ENCODING 108
SWIDTH 280 0
DWIDTH 7 0
BBX 3 19 2 0
BITMAP
e0
e0
e0
e0
e0
e0
e0
e0
e0
e0
e0
e0
e0
e0
e0
e0
e0
e0
e0
ENDCHAR
STARTCHAR 109
ENCODING 109
SWIDTH 840 0
DWIDTH 21 0
BBX 17 14 2 0
BITMAP
ef3e00
ffff00
f3e780
e1c380
e1c380
e1c380
e1c380
e1c380
e1c380
e1c380
e1c380
e1c380
e1c380
e1c380
ENDCHAR
STARTCHAR 110
ENCODING 110
SWIDTH 600 0
DWIDTH 15 0
BBX 11 14 2 0
BITMAP
ef80
ffc0
f1c0
e0e0
e0e0
e0e0
e0e0
e0e0
e0e0
e0e0
e0e0
e0e0
e0e0
e0e0
ENDCHAR
STARTCHAR 111
ENCODING 111
SWIDTH 560 0
DWIDTH 14 0
BBX 12 14 1 0
BITMAP
0f00
3fc0
79e0
70e0
e070
e070
e070
e070
e070
e070
70e0
79e0
3fc0
0f00
ENDCHAR
STARTCHAR 112
ENCODING 112
SWIDTH 600 0
DWIDTH 15 0
BBX 12 19 2 -5
BITMAP
ef80
ffc0
f9e0
f0e0
e070
e070
e070
e070
e070
e070
f0e0
f9e0
ffc0
ef80
e000
e000
e000
e000
e000
ENDCHAR
STARTCHAR 113
ENCODING 113
SWIDTH 600 0
DWIDTH 15 0
BBX 12 19 1 -5
BITMAP
1f70
3ff0
79f0
70f0
e070
e070
e070
e070
e070
e070
70f0
79f0
3ff0
1f70
0070
0070
0070
0070
0070
ENDCHAR
STARTCHAR 114
ENCODING 114
SWIDTH 400 0
DWIDTH 10 0
BBX 7 14 2 0
BITMAP
e6
ee
fe
f0
e0
e0
e0
e0
e0
e0
e0
e0
e0
e0
ENDCHAR
STARTCHAR 115
ENCODING 115
SWIDTH 520 0
DWIDTH 13 0
BBX 11 14 1 0
BITMAP
3f00
7f80
f3c0
e1c0
e000
fc00
7f80
0fc0
01e0
e0e0
e0e0
f1e0
7fc0
3f80
ENDCHAR
STARTCHAR 116
ENCODING 116
SWIDTH 360 0
DWIDTH 9 0
BBX 7 18 1 0
BITMAP
38
38
38
38
fe
fe
38
38
38
38
38
38
38
38
38
38
3e
1e
ENDCHAR
STARTCHAR 117
ENCODING 117
SWIDTH 600 0
DWIDTH 15 0
BBX 11 14 2 0
BITMAP
e0e0
e0e0
e0e0
e0e0
e0e0
e0e0
e0e0
e0e0
e0e0
e0e0
e1e0
73e0
7ee0
1ce0
ENDCHAR
STARTCHAR 118
ENCODING 118
SWIDTH 560 0
DWIDTH 14 0
BBX 12 14 1 0
BITMAP
e070
e070
e070
70e0
70e0
70e0
39c0
39c0
39c0
1f80
1f80
0f00
0f00
0f00
ENDCHAR
STARTCHAR 119
ENCODING 119
SWIDTH 760 0
DWIDTH 19 0
BBX 19 14 0 0
BITMAP
e0e0e0
e0e0e0
60e0c0
71f1c0
71f1c0
31b180
33b980
3bbb80
1b1b00
1f1f00
1f1f00
0e0e00
0e0e00
0e0e00
ENDCHAR
STARTCHAR 120
ENCODING 120
SWIDTH 520 0
DWIDTH 13 0
BBX 11 14 1 0
BITMAP
e0e0
f1e0
71c0
3b80
3f80
1f00
0e00
1f00
1f00
3b80
7bc0
71c0
f1e0
e0e0
ENDCHAR
STARTCHAR 121
ENCODING 121
SWIDTH 600 0
DWIDTH 15 0
BBX 13 19 1 -5
BITMAP
e038
e038
7038
7870
3870
3cf0
1ce0
1ce0
0fc0
0fc0
07c0
0780
0380
0380
0700
0700
0e00
3e00
3c00
ENDCHAR
STARTCHAR 122
ENCODING 122
SWIDTH 520 0
DWIDTH 13 0
BBX 11 14 1 0
BITMAP
ffe0
ffe0
01c0
0380
0780
0f00
0e00
1e00
3c00
3800
7000
f000
ffe0
ffe0
ENDCHAR
STARTCHAR 123
ENCODING 123
SWIDTH 400 0
DWIDTH 10 0
BBX 7 24 1 -5
BITMAP
0e
1c
38
38
38
38
38
38
38
38
70
e0
e0
70
38
38
38
38
38
38
38
38
1c
0e
ENDCHAR
STARTCHAR 124
ENCODING 124
SWIDTH 280 0
DWIDTH 7 0
BBX 3 24 2 -5
BITMAP
e0
e0
e0
e0
e0
e0
e0
e0
e0
e0
e0
e0
e0
e0
e0
e0
e0
e0
e0
e0
e0
e0
e0
e0
ENDCHAR
STARTCHAR 125
ENCODING 125
SWIDTH 400 0
DWIDTH 10 0
BBX 7 24 2 -5
BITMAP
e0
70
38
38
38
38
38
38
38
38
1c
0e
0e
1c
38
38
38
38
38
38
38
38
70
e0
ENDCHAR
STARTCHAR 126
ENCODING 126
SWIDTH 560 0
DWIDTH 14 0
BBX 11 4 1 5
BITMAP
78e0
fee0
efe0
e3c0
ENDCHAR
STARTCHAR 160
ENCODING 160
SWIDTH 240 0
DWIDTH 6 0
BBX 1 1 0 0
BITMAP
00
ENDCHAR
STARTCHAR 161
ENCODING 161
SWIDTH 280 0
DWIDTH 7 0
BBX 3 19 2 -5
BITMAP
e0
e0
e0
00
00
e0
e0
e0
e0
e0
e0
e0
e0
e0
e0
e0
e0
e0
e0
ENDCHAR
STARTCHAR 162
ENCODING 162
SWIDTH 560 0
DWIDTH 14 0
BBX 11 18 1 -2
BITMAP
0180
0180
1f80
3fc0
7be0
7360
e300
e600
e600
e600
e600
ec00
ece0
7de0
7fc0
3f80
1800
1800
ENDCHAR
STARTCHAR 163
ENCODING 163
SWIDTH 560 0
DWIDTH 14 0
BBX 13 18 0 0
BITMAP
1f80
3fc0
70e0
70e0
7000
7800
3800
1c00
ffc0
ffc0
1c00
1c00
1c00
3800
3800
7738
fff8
f9f0
ENDCHAR
STARTCHAR 164
ENCODING 164
SWIDTH 560 0
DWIDTH 14 0
BBX 12 12 1 3
BITMAP
c030
ef70
7fe0
39c0
70e0
70e0
70e0
70e0
39c0
7fe0
ef70
c030
ENDCHAR
STARTCHAR 165
ENCODING 165
SWIDTH 560 0
DWIDTH 14 0
BBX 13 18 0 0
BITMAP
e038
e038
7070
7070
38e0
38e0
1dc0
1dc0
7ff0
7ff0
0700
7ff0
7ff0
0700
0700
0700
0700
0700
ENDCHAR
STARTCHAR 166
ENCODING 166
SWIDTH 280 0
DWIDTH 7 0
BBX 3 23 2 -4
BITMAP
e0
e0
e0
e0
e0
e0
e0
e0
e0
00
00
00
00
00
e0
e0
e0
e0
e0
e0
e0
e0
e0
ENDCHAR
STARTCHAR 167
ENCODING 167
SWIDTH 560 0
DWIDTH 14 0
BBX 12 24 1 -5
BITMAP
1f80
3fc0
79e0
70e0
78e0
3c00
1e00
7f00
f780
e3c0
e1e0
e0e0
7070
7870
3c70
1ee0
0fc0
0780
03c0
71e0
70e0
79e0
3fc0
1f80
ENDCHAR
STARTCHAR 168
ENCODING 168
SWIDTH 360 0
DWIDTH 9 0
BBX 7 2 1 16
BITMAP
ee
ee
ENDCHAR
STARTCHAR 169
ENCODING 169
SWIDTH 760 0
DWIDTH 19 0
BBX 17 17 1 0
BITMAP
07f000
1e3c00
380e00
700700
63e300
e73380
ce3180
ce0180
ce0180
ce0180
ce3180
e73180
63e300
700700
380e00
1e3c00
07f000
ENDCHAR
STARTCHAR 170
ENCODING 170
SWIDTH 400 0
DWIDTH 10 0
BBX 8 12 1 7
BITMAP
7c
fe
c6
1e
7e
e6
c6
ff
7b
00
ff
ff
ENDCHAR
STARTCHAR 171
ENCODING 171
SWIDTH 520 0
DWIDTH 13 0
BBX 10 8 1 3
BITMAP
1dc0
3b80
7700
ee00
ee00
7700
3b80
1dc0
ENDCHAR
STARTCHAR 172
ENCODING 172
SWIDTH 600 0
DWIDTH 15 0
BBX 12 7 1 4
BITMAP
fff0
fff0
0030
0030
0030
0030
0030
ENDCHAR
STARTCHAR 173
ENCODING 173
SWIDTH 320 0
DWIDTH 8 0
BBX 7 3 0 6
BITMAP
fe
fe
fe
ENDCHAR
STARTCHAR 174
ENCODING 174
SWIDTH 760 0
DWIDTH 19 0
BBX 17 17 1 0
BITMAP
07f000
1e3c00
380e00
700700
67e300
e63380
c63180
c63180
c7e180
c6c180
c66180
e63180
661b00
700700
380e00
1e3c00
07f000
ENDCHAR
STARTCHAR 175
ENCODING 175
SWIDTH 360 0
DWIDTH 9 0
BBX 7 2 1 17
BITMAP
fe
fe
ENDCHAR
STARTCHAR 176
ENCODING 176
SWIDTH 360 0
DWIDTH 9 0
BBX 8 7 0 11
BITMAP
3c
66
c3
c3
c3
66
3c
ENDCHAR
STARTCHAR 177
ENCODING 177
SWIDTH 600 0
DWIDTH 15 0
BBX 11 13 2 0
BITMAP
0e00
0e00
0e00
0e00
ffe0
ffe0
0e00
0e00
0e00
0e00
0000
ffe0
ffe0
ENDCHAR
STARTCHAR 178
ENCODING 178
SWIDTH 280 0
DWIDTH 7 0
BBX 6 10 0 8
BITMAP
78
fc
cc
0c
1c
78
e0
c0
fc
fc
ENDCHAR
STARTCHAR 179
ENCODING 179
SWIDTH 280 0
DWIDTH 7 0
BBX 6 10 0 8
BITMAP
78
fc
cc
0c
38
38
0c
cc
fc
78
ENDCHAR
STARTCHAR 180
ENCODING 180
SWIDTH 320 0
DWIDTH 8 0
BBX 6 4 1 15
BITMAP
1c
38
70
e0
ENDCHAR
STARTCHAR 181
ENCODING 181
SWIDTH 600 0
DWIDTH 15 0
BBX 11 19 2 -5
BITMAP
e0e0
e0e0
e0e0
e0e0
e0e0
e0e0
e0e0
e0e0
e0e0
e0e0
e1e0
f3e0
fee0
ece0
e000
e000
e000
e000
e000
ENDCHAR
STARTCHAR 182
ENCODING 182
SWIDTH 520 0
DWIDTH 13 0
BBX 11 24 1 -5
BITMAP
0fe0
3fe0
7cc0
7cc0
fcc0
fcc0
fcc0
fcc0
fcc0
7cc0
7cc0
3cc0
1cc0
0cc0
0cc0
0cc0
0cc0
0cc0
0cc0
0cc0
0cc0
0cc0
0cc0
0cc0
ENDCHAR
STARTCHAR 183
ENCODING 183
SWIDTH 280 0
DWIDTH 7 0
BBX 3 3 2 6
BITMAP
e0
e0
e0
ENDCHAR
STARTCHAR 184
ENCODING 184
SWIDTH 320 0
DWIDTH 8 0
BBX 6 6 1 -5
BITMAP
70
78
1c
1c
fc
78
ENDCHAR
STARTCHAR 185
ENCODING 185
SWIDTH 280 0
DWIDTH 7 0
BBX 4 10 0 8
BITMAP
30
30
f0
f0
30
30
30
30
30
30
ENDCHAR
STARTCHAR 186
ENCODING 186
SWIDTH 400 0
DWIDTH 10 0
BBX 8 12 1 7
BITMAP
3c
7e
e7
c3
c3
c3
e7
7e
3c
00
ff
ff
ENDCHAR
STARTCHAR 187
ENCODING 187
SWIDTH 520 0
DWIDTH 13 0
BBX 10 8 1 3
BITMAP
ee00
7700
3b80
1dc0
1dc0
3b80
7700
ee00
ENDCHAR
STARTCHAR 188
ENCODING 188
SWIDTH 760 0
DWIDTH 19 0
BBX 17 18 1 0
BITMAP
301800
301800
f03000
f03000
306000
306000
30c000
30c000
318600
318e00
031e00
031e00
063600
066600
0c7f80
0c7f80
180600
180600
ENDCHAR
STARTCHAR 189
ENCODING 189
SWIDTH 760 0
DWIDTH 19 0
BBX 16 18 1 0
BITMAP
3018
3018
f030
f030
3060
3060
30c0
30c0
319e
31bf
0333
0303
0607
061e
0c38
0c30
183f
183f
ENDCHAR
STARTCHAR 190
ENCODING 190
SWIDTH 760 0
DWIDTH 19 0
BBX 17 18 1 0
BITMAP
781800
fc1800
cc3000
0c3000
386000
386000
0cc000
ccc000
fd8600
798e00
031e00
031e00
063600
066600
0c7f80
0c7f80
180600
180600
ENDCHAR
STARTCHAR 191
ENCODING 191
SWIDTH 600 0
DWIDTH 15 0
BBX 11 19 2 -5
BITMAP
0e00
0e00
0e00
0000
0000
0e00
0e00
0e00
0e00
1c00
3c00
7800
7000
f0e0
e0e0
e1e0
f3c0
7fc0
3f00
ENDCHAR
STARTCHAR 192
ENCODING 192
SWIDTH 720 0
DWIDTH 18 0
BBX 16 24 1 0
BITMAP
0e00
0700
0380
01c0
0000
03c0
03c0
07e0
07e0
0e60
0e70
0e70
1c38
1c38
1c38
381c
381c
3ffc
7ffe
700e
700e
e007
e007
e007
ENDCHAR
STARTCHAR 193
ENCODING 193
SWIDTH 720 0
DWIDTH 18 0
BBX 16 24 1 0
BITMAP
0038
0070
00e0
01c0
0000
03c0
03c0
07e0
07e0
0e60
0e70
0e70
1c38
1c38
1c38
381c
381c
3ffc
7ffe
700e
700e
e007
e007
e007
ENDCHAR
STARTCHAR 194
ENCODING 194
SWIDTH 720 0
DWIDTH 18 0
BBX 16 24 1 0
BITMAP
01c0
03e0
0770
0e38
0000
03c0
03c0
07e0
07e0
0e60
0e70
0e70
1c38
1c38
1c38
381c
381c
3ffc
7ffe
700e
700e
e007
e007
e007
ENDCHAR
STARTCHAR 195
ENCODING 195
SWIDTH 720 0
DWIDTH 18 0
BBX 16 23 1 0
BITMAP
0798
0ff8
0cf0
0000
03c0
03c0
07e0
07e0
0e60
0e70
0e70
1c38
1c38
1c38
381c
381c
3ffc
7ffe
700e
700e
e007
e007
e007
ENDCHAR
STARTCHAR 196
ENCODING 196
SWIDTH 720 0
DWIDTH 18 0
BBX 16 23 1 0
BITMAP
0e70
0e70
0000
0000
03c0
03c0
07e0
07e0
0e60
0e70
0e70
1c38
1c38
1c38
381c
381c
3ffc
7ffe
700e
700e
e007
e007
e007
ENDCHAR
STARTCHAR 197
ENCODING 197
SWIDTH 720 0
DWIDTH 18 0
BBX 16 23 1 0
BITMAP
03c0
0660
0660
0660
03c0
03c0
07e0
07e0
0e60
0e70
0e70
1c38
1c38
1c38
381c
381c
3ffc
7ffe
700e
700e
e007
e007
e007
ENDCHAR
STARTCHAR 198
ENCODING 198
SWIDTH 960 0
DWIDTH 24 0
BBX 22 19 1 0
BITMAP
03fff8
03fff8
07f000
067000
0e7000
0e7000
0e7000
1c7000
1c7ff0
1c7ff0
387000
387000
3ff000
7ff000
707000
707000
e07000
e07ffc
e07ffc
ENDCHAR
STARTCHAR 199
ENCODING 199
SWIDTH 720 0
DWIDTH 18 0
BBX 16 24 1 -5
BITMAP
07f0
1ffc
3e3e
780f
7007
f000
e000
e000
e000
e000
e000
e000
e000
f007
7007
780f
3e3e
1ffc
07f0
03c0
00e0
00e0
07e0
03c0
ENDCHAR
STARTCHAR 200
ENCODING 200
SWIDTH 640 0
DWIDTH 16 0
BBX 13 24 2 0
BITMAP
7000
3800
1c00
0e00
0000
fff0
fff0
e000
e000
e000
e000
e000
e000
ffe0
ffe0
e000
e000
e000
e000
e000
e000
e000
fff8
fff8
ENDCHAR
STARTCHAR 201
ENCODING 201
SWIDTH 640 0
DWIDTH 16 0
BBX 13 24 2 0
BITMAP
00e0
01c0
0380
0700
0000
fff0
fff0
e000
e000
e000
e000
e000
e000
ffe0
ffe0
e000
e000
e000
e000
e000
e000
e000
fff8
fff8
ENDCHAR
STARTCHAR 202
ENCODING 202
SWIDTH 640 0
DWIDTH 16 0
BBX 13 24 2 0
BITMAP
0700
0f80
1dc0
38e0
0000
fff0
fff0
e000
e000
e000
e000
e000
e000
ffe0
ffe0
e000
e000
e000
e000
e000
e000
e000
fff8
fff8
ENDCHAR
STARTCHAR 203
ENCODING 203
SWIDTH 640 0
DWIDTH 16 0
BBX 13 23 2 0
BITMAP
39c0
39c0
0000
0000
fff0
fff0
e000
e000
e000
e000
e000
e000
ffe0
ffe0
e000
e000
e000
e000
e000
e000
e000
fff8
fff8
ENDCHAR
STARTCHAR 204
ENCODING 204
SWIDTH 280 0
DWIDTH 7 0
BBX 6 24 0 0
BITMAP
e0
70
38
1c
00
38
38
38
38
38
38
38
38
38
38
38
38
38
38
38
38
38
38
38
ENDCHAR
STARTCHAR 205
ENCODING 205
SWIDTH 280 0
DWIDTH 7 0
BBX 6 24 2 0
BITMAP
1c
38
70
e0
00
e0
e0
e0
e0
e0
e0
e0
e0
e0
e0
e0
e0
e0
e0
e0
e0
e0
e0
e0
ENDCHAR
STARTCHAR 206
ENCODING 206
SWIDTH 280 0
DWIDTH 7 0
BBX 9 24 -1 0
BITMAP
1c00
3e00
7700
e380
0000
1c00
1c00
1c00
1c00
1c00
1c00
1c00
1c00
1c00
1c00
1c00
1c00
1c00
1c00
1c00
1c00
1c00
1c00
1c00
ENDCHAR
STARTCHAR 207
ENCODING 207
SWIDTH 280 0
DWIDTH 7 0
BBX 7 23 0 0
BITMAP
ee
ee
00
00
38
38
38
38
38
38
38
38
38
38
38
38
38
38
38
38
38
38
38
ENDCHAR
STARTCHAR 208
ENCODING 208
SWIDTH 760 0
DWIDTH 19 0
BBX 19 19 -1 0
BITMAP
1ffc00
1fff00
1c0f80
1c03c0
1c01c0
1c01e0
1c00e0
1c00e0
ffc0e0
ffc0e0
1c00e0
1c00e0
1c00e0
1c01e0
1c01c0
1c03c0
1c0f80
1fff00
1ffc00
ENDCHAR
STARTCHAR 209
ENCODING 209
SWIDTH 760 0
DWIDTH 19 0
BBX 15 23 2 0
BITMAP
0e30
1ff0
19e0
0000
e00e
f00e
f00e
f80e
f80e
fc0e
ee0e
ee0e
e70e
e38e
e38e
e1ce
e0ce
e0ee
e07e
e03e
e03e
e01e
e00e
ENDCHAR
STARTCHAR 210
ENCODING 210
SWIDTH 760 0
DWIDTH 19 0
BBX 17 24 1 0
BITMAP
070000
038000
01c000
00e000
000000
07f000
1ffc00
3e3e00
780f00
700700
f00780
e00380
e00380
e00380
e00380
e00380
e00380
e00380
f00780
700700
780f00
3e3e00
1ffc00
07f000
ENDCHAR
STARTCHAR 211
ENCODING 211
SWIDTH 760 0
DWIDTH 19 0
BBX 17 24 1 0
BITMAP
003800
007000
00e000
01c000
000000
07f000
1ffc00
3e3e00
780f00
700700
f00780
e00380
e00380
e00380
e00380
e00380
e00380
e00380
f00780
700700
780f00
3e3e00
1ffc00
07f000
ENDCHAR
STARTCHAR 212
ENCODING 212
SWIDTH 760 0
DWIDTH 19 0
BBX 17 24 1 0
BITMAP
01c000
03e000
077000
0e3800
000000
07f000
1ffc00
3e3e00
780f00
700700
f00780
e00380
e00380
e00380
e00380
e00380
e00380
e00380
f00780
700700
780f00
3e3e00
1ffc00
07f000
ENDCHAR
STARTCHAR 213
ENCODING 213
SWIDTH 760 0
DWIDTH 19 0
BBX 17 24 1 0
BITMAP
079800
0ff800
0cf000
000000
000000
07f000
1ffc00
3e3e00
780f00
700700
f00780
e00380
e00380
e00380
e00380
e00380
e00380
e00380
f00780
700700
780f00
3e3e00
1ffc00
07f000
ENDCHAR
STARTCHAR 214
ENCODING 214
SWIDTH 760 0
DWIDTH 19 0
BBX 17 23 1 0
BITMAP
0e3800
0e3800
000000
000000
07f000
1ffc00
3e3e00
780f00
700700
f00780
e00380
e00380
e00380
e00380
e00380
e00380
e00380
f00780
700700
780f00
3e3e00
1ffc00
07f000
ENDCHAR
STARTCHAR 215
ENCODING 215
SWIDTH 600 0
DWIDTH 15 0
BBX 12 12 1 1
BITMAP
4020
e070
70e0
39c0
1f80
0f00
0f00
1f80
39c0
70e0
e070
4020
ENDCHAR
STARTCHAR 216
ENCODING 216
SWIDTH 760 0
DWIDTH 19 0
BBX 19 19 0 0
BITMAP
03f860
0ffee0
1f1fc0
3c0380
380780
780fc0
701dc0
7039c0
7071c0
70e1c0
71c1c0
7381c0
7701c0
7e03c0
3c0380
3c0780
7f1f00
effe00
c3f800
ENDCHAR
STARTCHAR 217
ENCODING 217
SWIDTH 760 0
DWIDTH 19 0
BBX 15 24 2 0
BITMAP
0e00
0700
0380
01c0
0000
e00e
e00e
e00e
e00e
e00e
e00e
e00e
e00e
e00e
e00e
e00e
e00e
e00e
f01e
f01e
701c
7c7c
3ff8
0fe0
ENDCHAR
STARTCHAR 218
ENCODING 218
SWIDTH 760 0
DWIDTH 19 0
BBX 15 24 2 0
BITMAP
0070
00e0
01c0
0380
0000
e00e
e00e
e00e
e00e
e00e
e00e
e00e
e00e
e00e
e00e
e00e
e00e
e00e
f01e
f01e
701c
7c7c
3ff8
0fe0
ENDCHAR
STARTCHAR 219
ENCODING 219
SWIDTH 760 0
DWIDTH 19 0
BBX 15 24 2 0
BITMAP
0780
0fc0
1ce0
3870
0000
e00e
e00e
e00e
e00e
e00e
e00e
e00e
e00e
e00e
e00e
e00e
e00e
e00e
f01e
f01e
701c
7c7c
3ff8
0fe0
ENDCHAR
STARTCHAR 220
ENCODING 220
SWIDTH 760 0
DWIDTH 19 0
BBX 15 23 2 0
BITMAP
1c70
1c70
0000
0000
e00e
e00e
e00e
e00e
e00e
e00e
e00e
e00e
e00e
e00e
e00e
e00e
e00e
f01e
f01e
701c
7c7c
3ff8
0fe0
ENDCHAR
STARTCHAR 221
ENCODING 221
SWIDTH 680 0
DWIDTH 17 0
BBX 15 24 1 0
BITMAP
0070
00e0
01c0
0380
0000
f01e
701c
783c
3838
3c78
1c70
1ef0
0ee0
0fe0
07c0
07c0
0380
0380
0380
0380
0380
0380
0380
0380
ENDCHAR
STARTCHAR 222
ENCODING 222
SWIDTH 680 0
DWIDTH 17 0
BBX 14 19 2 0
BITMAP
e000
e000
e000
e000
ffe0
fff8
e038
e01c
e01c
e01c
e01c
e038
fff8
fff0
e000
e000
e000
e000
e000
ENDCHAR
STARTCHAR 223
ENCODING 223
SWIDTH 560 0
DWIDTH 14 0
BBX 11 19 2 0
BITMAP
1e00
7f80
f380
e1c0
e1c0
e1c0
e1c0
e380
ef00
ef80
e3c0
e1c0
e0e0
e0e0
e0e0
e0e0
e1c0
efc0
ef80
ENDCHAR
STARTCHAR 224
ENCODING 224
SWIDTH 560 0
DWIDTH 14 0
BBX 12 19 1 0
BITMAP
1c00
0e00
0700
0380
0000
1f80
3fc0
71e0
70e0
00e0
07e0
3fe0
7ce0
f0e0
e0e0
e1e0
f3e0
7ff0
3e70
ENDCHAR
STARTCHAR 225
ENCODING 225
SWIDTH 560 0
DWIDTH 14 0
BBX 12 19 1 0
BITMAP
01c0
0380
0700
0e00
0000
1f80
3fc0
71e0
70e0
00e0
07e0
3fe0
7ce0
f0e0
e0e0
e1e0
f3e0
7ff0
3e70
ENDCHAR
STARTCHAR 226
ENCODING 226
SWIDTH 560 0
DWIDTH 14 0
BBX 12 19 1 0
BITMAP
0700
0f80
1dc0
38e0
0000
1f80
3fc0
71e0
70e0
00e0
07e0
3fe0
7ce0
f0e0
e0e0
e1e0
f3e0
7ff0
3e70
ENDCHAR
STARTCHAR 227
ENCODING 227
SWIDTH 560 0
DWIDTH 14 0
BBX 12 19 1 0
BITMAP
1e60
3fe0
33c0
0000
0000
1f80
3fc0
71e0
70e0
00e0
07e0
3fe0
7ce0
f0e0
e0e0
e1e0
f3e0
7ff0
3e70
ENDCHAR
STARTCHAR 228
ENCODING 228
SWIDTH 560 0
DWIDTH 14 0
BBX 12 18 1 0
BITMAP
1dc0
1dc0
0000
0000
1f80
3fc0
71e0
70e0
00e0
07e0
3fe0
7ce0
f0e0
e0e0
e1e0
f3e0
7ff0
3e70
ENDCHAR
STARTCHAR 229
ENCODING 229
SWIDTH 560 0
DWIDTH 14 0
BBX 12 19 1 0
BITMAP
0f00
1980
1980
1980
0f00
1f80
3fc0
71e0
70e0
00e0
07e0
3fe0
7ce0
f0e0
e0e0
e1e0
f3e0
7ff0
3e70
ENDCHAR
STARTCHAR 230
ENCODING 230
SWIDTH 880 0
DWIDTH 22 0
BBX 20 14 1 0
BITMAP
1f8f00
3fffc0
71f9e0
70f0e0
00e070
07e070
3ffff0
7cfff0
f0e000
e0e000
e1f070
f3f8f0
7f3fe0
3e0f80
ENDCHAR
STARTCHAR 231
ENCODING 231
SWIDTH 520 0
DWIDTH 13 0
BBX 11 19 1 -5
BITMAP
1f80
3fc0
79e0
70e0
e000
e000
e000
e000
e000
e000
70e0
79e0
3fc0
1f80
1e00
0700
0700
3f00
1e00
ENDCHAR
STARTCHAR 232
ENCODING 232
SWIDTH 560 0
DWIDTH 14 0
BBX 12 19 1 0
BITMAP
1c00
0e00
0700
0380
0000
0f00
3fc0
79e0
70e0
e070
e070
fff0
fff0
e000
e000
7070
78f0
3fe0
0f80
ENDCHAR
STARTCHAR 233
ENCODING 233
SWIDTH 560 0
DWIDTH 14 0
BBX 12 19 1 0
BITMAP
01c0
0380
0700
0e00
0000
0f00
3fc0
79e0
70e0
e070
e070
fff0
fff0
e000
e000
7070
78f0
3fe0
0f80
ENDCHAR
STARTCHAR 234
ENCODING 234
SWIDTH 560 0
DWIDTH 14 0
BBX 12 19 1 0
BITMAP
0700
0f80
1dc0
38e0
0000
0f00
3fc0
79e0
70e0
e070
e070
fff0
fff0
e000
e000
7070
78f0
3fe0
0f80
ENDCHAR
STARTCHAR 235
ENCODING 235
SWIDTH 560 0
DWIDTH 14 0
BBX 12 18 1 0
BITMAP
39c0
39c0
0000
0000
0f00
3fc0
79e0
70e0
e070
e070
fff0
fff0
e000
e000
7070
78f0
3fe0
0f80
ENDCHAR
STARTCHAR 236
ENCODING 236
SWIDTH 280 0
DWIDTH 7 0
BBX 6 19 1 0
BITMAP
e0
70
38
1c
00
70
70
70
70
70
70
70
70
70
70
70
70
70
70
ENDCHAR
STARTCHAR 237
ENCODING 237
SWIDTH 280 0
DWIDTH 7 0
BBX 6 19 1 0
BITMAP
1c
38
70
e0
00
70
70
70
70
70
70
70
70
70
70
70
70
70
70
ENDCHAR
STARTCHAR 238
ENCODING 238
SWIDTH 280 0
DWIDTH 7 0
BBX 9 19 -1 0
BITMAP
1c00
3e00
7700
e380
0000
1c00
1c00
1c00
1c00
1c00
1c00
1c00
1c00
1c00
1c00
1c00
1c00
1c00
1c00
ENDCHAR
STARTCHAR 239
ENCODING 239
SWIDTH 280 0
DWIDTH 7 0
BBX 7 18 0 0
BITMAP
ee
ee
00
00
38
38
38
38
38
38
38
38
38
38
38
38
38
38
ENDCHAR
STARTCHAR 240
ENCODING 240
SWIDTH 560 0
DWIDTH 14 0
BBX 12 19 1 0
BITMAP
e000
39c0
1f00
3e00
c300
0f80
3fc0
79e0
70e0
e070
e070
e070
e070
e070
e070
70e0
79e0
3fc0
0f00
ENDCHAR
STARTCHAR 241
ENCODING 241
SWIDTH 600 0
DWIDTH 15 0
BBX 11 19 2 0
BITMAP
3cc0
7fc0
6780
0000
0000
ef80
ffc0
f1c0
e0e0
e0e0
e0e0
e0e0
e0e0
e0e0
e0e0
e0e0
e0e0
e0e0
e0e0
ENDCHAR
STARTCHAR 242
ENCODING 242
SWIDTH 560 0
DWIDTH 14 0
BBX 12 19 1 0
BITMAP
1c00
0e00
0700
0380
0000
0f00
3fc0
79e0
70e0
e070
e070
e070
e070
e070
e070
70e0
79e0
3fc0
0f00
ENDCHAR
STARTCHAR 243
ENCODING 243
SWIDTH 560 0
DWIDTH 14 0
BBX 12 19 1 0
BITMAP
01c0
0380
0700
0e00
0000
0f00
3fc0
79e0
70e0
e070
e070
e070
e070
e070
e070
70e0
79e0
3fc0
0f00
ENDCHAR
STARTCHAR 244
ENCODING 244
SWIDTH 560 0
DWIDTH 14 0
BBX 12 19 1 0
BITMAP
0700
0f80
1dc0
38e0
0000
0f00
3fc0
79e0
70e0
e070
e070
e070
e070
e070
e070
70e0
79e0
3fc0
0f00
ENDCHAR
STARTCHAR 245
ENCODING 245
SWIDTH 560 0
DWIDTH 14 0
BBX 12 19 1 0
BITMAP
1e60
3fe0
33c0
0000
0000
0f00
3fc0
79e0
70e0
e070
e070
e070
e070
e070
e070
70e0
79e0
3fc0
0f00
ENDCHAR
STARTCHAR 246
ENCODING 246
SWIDTH 560 0
DWIDTH 14 0
BBX 12 18 1 0
BITMAP
1dc0
1dc0
0000
0000
0f00
3fc0
79e0
70e0
e070
e070
e070
e070
e070
e070
70e0
79e0
3fc0
0f00
ENDCHAR
STARTCHAR 247
ENCODING 247
SWIDTH 600 0
DWIDTH 15 0
BBX 11 12 2 1
BITMAP
0e00
0e00
0e00
0000
0000
ffe0
ffe0
0000
0000
0e00
0e00
0e00
ENDCHAR
STARTCHAR 248
ENCODING 248
SWIDTH 560 0
DWIDTH 14 0
BBX 14 14 0 0
BITMAP
078c
1ff8
3cf0
3870
70f8
71f8
73b8
7738
7e38
7c38
3870
7cf0
dfe0
8780
ENDCHAR
STARTCHAR 249
ENCODING 249
SWIDTH 600 0
DWIDTH 15 0
BBX 11 19 2 0
BITMAP
3800
1c00
0e00
0700
0000
e0e0
e0e0
e0e0
e0e0
e0e0
e0e0
e0e0
e0e0
e0e0
e0e0
e1e0
73e0
7ee0
1ce0
ENDCHAR
STARTCHAR 250
ENCODING 250
SWIDTH 600 0
DWIDTH 15 0
BBX 11 19 2 0
BITMAP
0380
0700
0e00
1c00
0000
e0e0
e0e0
e0e0
e0e0
e0e0
e0e0
e0e0
e0e0
e0e0
e0e0
e1e0
73e0
7ee0
1ce0
ENDCHAR
STARTCHAR 251
ENCODING 251
SWIDTH 600 0
DWIDTH 15 0
BBX 11 19 2 0
BITMAP
0e00
1f00
3b80
71c0
0000
e0e0
e0e0
e0e0
e0e0
e0e0
e0e0
e0e0
e0e0
e0e0
e0e0
e1e0
73e0
7ee0
1ce0
ENDCHAR
STARTCHAR 252
ENCODING 252
SWIDTH 600 0
DWIDTH 15 0
BBX 11 18 2 0
BITMAP
3b80
3b80
0000
0000
e0e0
e0e0
e0e0
e0e0
e0e0
e0e0
e0e0
e0e0
e0e0
e0e0
e1e0
73e0
7ee0
1ce0
ENDCHAR
STARTCHAR 253
ENCODING 253
SWIDTH 600 0
DWIDTH 15 0
BBX 13 24 1 -5
BITMAP
00e0
01c0
0380
0700
0000
e038
e038
7038
7870
3870
3cf0
1ce0
1ce0
0fc0
0fc0
07c0
0780
0380
0380
0700
0700
0e00
3e00
3c00
ENDCHAR
STARTCHAR 254
ENCODING 254
SWIDTH 600 0
DWIDTH 15 0
BBX 12 24 2 -5
BITMAP
e000
e000
e000
e000
e000
ef80
ffc0
f9e0
f0e0
e070
e070
e070
e070
e070
e070
f0e0
f9e0
ffc0
ef80
e000
e000
e000
e000
e000
ENDCHAR
STARTCHAR 255
ENCODING 255
SWIDTH 600 0
DWIDTH 15 0
BBX 13 23 1 -5
BITMAP
1ce0
1ce0
0000
0000
e038
e038
7038
7870
3870
3cf0
1ce0
1ce0
0fc0
0fc0
07c0
0780
0380
0380
0700
0700
0e00
3e00
3c00
ENDCHAR
ENDFONT
